<?xml version="1.0" encoding="utf-8"?>
<!DOCTYPE svg PUBLIC "-//W3C//DTD SVG 1.0//EN" "http://www.w3.org/TR/2001/REC-SVG-20010904/DTD/svg10.dtd">
<svg version="1" xmlns="http://www.w3.org/2000/svg" width="300px" height="150px" viewBox="0 0 179 78" preserveAspectRatio="xMidYMid meet">
  <g>
  <g stroke-width="1" fill="cyan" stroke="#000000">
            <path transform="matrix(1,0,0,1.1,-3.4,-2.6)" d="M 4.7 -1.8 C 5.2 -2.4 6.7 -1.9 7.5 -1.9 L 15 -1.9 L 44.2 -1.9 L 147.2 -1.9 L 173.7 -1.9 L 180.6 -1.9 C 181.2 -1.9 182.6 -2.1 183 -1.8 C 183.7 -1.2 183.3 1.7 183.3 2.5 L 183.3 15.2 L 183.3 60.5 L 183.3 71.8 C 183.3 72.7 183.7 75.1 183 75.7 C 182.6 76.2 181.2 76 180.5 76 L 173 76 L 143.6 76 L 40.6 76 L 14 76 L 7.2 76 C 6.6 76 5.2 76.2 4.7 75.8 C 4.1 75.4 4.5 72.8 4.5 72.1 L 4.5 60.8 L 4.5 15 L 4.5 2.4 C 4.5 1.5 3.8 -1.2 4.7 -1.8 M 98.2 1.5 C 103.3 0.4 103.9 8.1 99.5 9.1 C 95.5 10 93.9 2.4 98.2 1.5 M 146 39.7 C 143.7 38.5 141.9 35.7 140.2 33.8 C 139.6 33.1 138.7 31.7 137.9 31.5 C 137.2 31.4 136 32 135.3 32.2 C 133.5 33 131.6 33.7 129.6 34 C 123.2 35 116.6 34.5 110 34.5 C 101.5 34.5 93.6 29.7 87.7 23.8 C 86.6 22.7 85.5 21.5 84.6 20.1 C 83.9 19 83.3 17.5 82.2 16.8 C 80.7 16 78.9 16.2 77.3 16.2 C 74.5 16.2 71.7 16.4 68.9 16.5 C 67.9 16.5 66.6 16.4 65.6 16.5 C 64.5 16.8 64.9 18.4 64.9 19.2 L 64.9 27.8 L 64.9 57.4 L 64.9 64.8 C 64.9 65.5 64.6 67 65.2 67.4 C 65.5 67.8 66.3 67.7 66.7 67.7 L 71 67.7 C 76.6 67.7 82.3 67.2 87.9 67.7 C 94.6 68.1 101.3 67.8 108 67.8 L 144.3 67.8 C 149.6 67.8 155.2 68.1 160.5 67.5 C 161.9 67.4 164.3 68 165.6 67.2 C 166.9 66.4 166.6 64 167.6 62.8 C 168.7 64.2 168 67.7 168 69.5 C 168 70.2 168.3 71.4 167.5 71.7 C 165.3 72.2 162.5 71.7 160.3 71.7 C 154.9 71.7 149.6 71.5 144.2 71.7 C 125.6 72.1 106.9 72 88.3 72 C 82.3 72 76.2 71.8 70.2 71.8 C 68.2 71.8 64.5 72.2 62.9 70.8 C 62.2 70.1 62.2 68.8 62.2 67.8 C 61.7 65 61.6 62 61.6 59.1 C 61.6 48.2 60.9 37.2 61.6 26.4 C 61.9 23.4 62 20.2 62.2 17.2 C 62.3 15.8 62.2 14.4 63.7 13.8 C 68.3 12.5 73.6 13.1 78.3 13.1 C 79.9 13.1 82.5 12.8 83.9 14 C 84.9 14.7 84.9 16 85.3 17 C 85.9 18.2 86.7 19.4 87.6 20.4 C 91.5 25.2 96.7 29.2 102.7 31.1 C 110.3 33.7 118.9 34.1 126.6 32.8 C 129.5 32.2 132.2 31.5 134.7 30.4 C 135.9 30 137.6 29 138.7 29.4 C 140.2 30 140.9 32.1 141.6 33.2 C 143 35.4 144.7 37.2 146.7 39 L 146 39.8 C 146.7 40.4 147 40.2 147.7 39.7 L 147.6 39.5 L 147.5 39.4 L 146.6 40.1 M 150.5 24.7 C 150.6 26.1 149.7 27.1 149.7 28.5 C 149.7 30 149.6 31.4 149.7 32.8 C 150.2 35.1 151.6 38.2 149.5 40.1 L 150 40.8 C 149.2 41.2 148.2 41.1 147.3 40.5 L 147.9 39.7 M 150.5 26.4 C 150.9 27.1 150.9 27.7 150.9 28.4 C 150.9 30.1 151.5 33 150.5 34.2 M 145.6 38.8 L 145.9 38.8 L 145.6 38.8 M 145.7 39 L 145.5 39.2 M 146.9 39 L 147.3 39.4 M 150.5 39.7 L 150.2 40.8 M 148.2 39.8 L 147.6 40.7 M 148.5 40 L 147.9 41 M 148.6 40.1 L 149.3 40.1 M 149.2 40.2 L 149.2 41 M 147.2 40.5 L 147.3 40.5 M 127.9 57.5 C 129 57.1 130.9 56.8 131.9 57.7 C 133.5 59 132.6 62.1 131.3 63.4 C 129 65.7 124.9 65.8 122.9 63.2 C 121.6 61.7 121.3 59.4 121.6 57.5 C 122.2 54.5 124 52.7 127 52.2 C 127.9 52.1 130.6 52 130.9 53.2 C 130.9 54 130 54.7 129.5 55 C 128.2 55.8 127 56.2 126.6 57.8 L 126.7 58 L 127.7 57.4 L 127.3 57 L 127.2 56.8 L 127 56.7 M 133 59.7 C 133.9 58.4 133.5 55.8 133.5 54.2 C 133.5 53.8 133.3 52.5 133.7 52.2 C 134.2 52 135 52.1 135.6 52.1 C 137 52.1 140.7 51.7 141.3 53.4 C 142 55.1 139.3 54.8 138.7 55.8 C 138 57.2 140.7 57 140.3 58.4 C 139.9 59.5 137.9 58.7 137.6 60.1 C 137.5 61.1 138.7 61 139.3 61.2 C 140 61.7 140.5 62.4 140.5 63.2 C 140.3 65.7 137.2 65.1 135.6 65.1 C 135.2 65.1 133.9 65.2 133.6 64.8 C 132.7 63.7 134 61.4 133 60.1 M 142.7 52.2 C 143.2 52 144 52.1 144.6 52.1 C 145.9 52.1 150.5 51.7 150.5 53.7 C 150.5 55.5 147.6 54.7 147.6 56.2 C 147.6 57.4 149.5 57.1 149.3 58.2 C 149.2 59.5 146.7 58.7 146.6 60.1 C 146.6 61.5 149.2 61 149.9 61.5 C 150.5 62 150 63 149.7 63.5 C 149.7 64 149.6 64.4 149.3 64.7 C 148.6 65.2 147.2 65.1 146.3 65.1 C 145.5 65.1 143.3 65.5 142.7 65 C 142.3 64.7 142.5 63.4 142.5 63 L 142.5 57 C 142.5 55.8 142.5 54.7 142.5 53.5 C 142.5 53.1 142.3 52.5 142.7 52.2 M 155.7 54.5 C 157.3 53.5 158.2 52.1 160.3 52.1 C 160.7 52.1 162 52 161.9 52.7 C 161.7 54.5 159.3 56 159 57.8 C 158.7 59.4 159.9 61 160.5 62.2 C 160.9 63 161.3 63.8 160.6 64.4 C 159.5 65.4 158 65 157 64 C 156.7 63.5 156.3 62.7 155.6 62.7 C 154.7 62.7 153.6 66.7 152.2 64.7 C 151.6 64 151.6 62.7 151.6 61.8 C 151.3 59.4 150.9 55.2 151.9 53 C 152.6 51.7 154.3 52.1 155.2 53 C 155.5 53.4 155.5 54.1 155.7 54.5 M 74.9 52.4 C 79.2 51.1 80.2 57.4 81 60.1 C 81.5 61.2 82.6 63.5 80.9 64 C 80 64.2 78.7 63.8 77.9 63.7 C 76 63.5 72.6 65.5 71.3 63.8 C 70.6 63 71 61.8 71.3 61 C 71.9 58.8 72.5 56.7 73.2 54.5 C 73.5 53.7 73.9 52.7 74.9 52.4 M 87.2 52.2 C 89.2 52 91.2 53.1 92.6 54.4 C 93.2 55 94 56.4 94.9 56.4 C 95.6 56.5 95.5 55.2 95.6 54.8 C 95.7 53.4 97.7 52.5 98.9 53.7 C 100 54.8 99.5 57.5 99.6 59 C 99.7 59.5 99.7 60.5 100.3 60.7 C 101.2 61 101.5 59.1 101.5 58.5 C 101.9 56.8 101.5 51.5 104.7 52.8 C 106 53.2 105.7 55.2 105.7 56.4 C 105.5 59.4 104.5 64 101.2 65 C 98.9 65.5 97.3 64.5 96.3 62.5 C 96 62 95.5 59.7 94.6 59.8 C 92.6 60.1 93.5 63.8 92.7 64.8 C 92.5 65.4 91.6 65.7 91 65.7 C 90.3 65.7 89.6 65.1 88.9 64.8 C 87.6 64.4 86.3 64.4 85.2 63.8 C 80.5 61.5 82.2 53.2 87.2 52.2 M 106 63.2 C 106.3 61.5 107 59.8 107.6 58.1 C 108 56.8 108.3 55.5 109 54.4 C 109.9 52.8 112.6 51.2 114 53 C 115.6 54.8 116 57.8 116.6 60 C 116.9 61 117.9 63.1 117 63.8 C 115 65.5 113.2 63.4 111.2 63.5 C 109.3 63.7 107.5 64.7 106 63.2 L 105.9 63.4 L 105.7 64.1 L 106.6 64.2 M 141.6 53.7 L 142.3 53.7 M 87.9 56.5 C 89.6 56 90.7 59.4 88.7 60 C 86.3 60.7 85.7 57.1 87.9 56.5 M 126.7 58 C 125.7 59.2 126.2 60.8 127.9 60.8 L 126.7 58.2 M 168.2 58.1 L 167.7 62.7 M 127.6 59.8 L 126.9 60.5 M 82.2 63.4 C 82.2 64.1 81.9 64.2 81.2 64.1"/>
        </g>
 </g>
</svg>